<svg width="126" height="26" viewBox="0 0 126 26" fill="none" xmlns="http://www.w3.org/2000/svg">
<g clip-path="url(#clip0_107_555)">
<g clip-path="url(#clip1_107_555)">
<g clip-path="url(#clip2_107_555)">
<path d="M10.3392 1.04242H1.46619C1.1235 1.04242 0.845703 1.32022 0.845703 1.66291V10.5359C0.845703 10.8786 1.1235 11.1564 1.46619 11.1564H10.3392C10.6819 11.1564 10.9597 10.8786 10.9597 10.5359V1.66291C10.9597 1.32022 10.6819 1.04242 10.3392 1.04242Z" fill="#2947C7"/>
<path d="M17.3943 13.1605H13.5783C13.2356 13.1605 12.9578 13.4383 12.9578 13.781V17.597C12.9578 17.9397 13.2356 18.2175 13.5783 18.2175H17.3943C17.7369 18.2175 18.0147 17.9397 18.0147 17.597V13.781C18.0147 13.4383 17.7369 13.1605 17.3943 13.1605Z" fill="#2947C7"/>
<path d="M22.4511 18.2175H18.6351C18.2925 18.2175 18.0146 18.4953 18.0146 18.838V22.654C18.0146 22.9967 18.2925 23.2745 18.6351 23.2745H22.4511C22.7938 23.2745 23.0716 22.9967 23.0716 22.654V18.838C23.0716 18.4953 22.7938 18.2175 22.4511 18.2175Z" fill="#2947C7"/>
<path d="M10.3392 13.1605H1.46619C1.1235 13.1605 0.845703 13.4383 0.845703 13.781V22.654C0.845703 22.9967 1.1235 23.2745 1.46619 23.2745H10.3392C10.6819 23.2745 10.9597 22.9967 10.9597 22.654V13.781C10.9597 13.4383 10.6819 13.1605 10.3392 13.1605Z" fill="#2947C7"/>
<path d="M22.4512 1.04242H13.5783C13.2356 1.04242 12.9578 1.32022 12.9578 1.66291V10.5359C12.9578 10.8786 13.2356 11.1564 13.5783 11.1564H22.4512C22.7939 11.1564 23.0717 10.8786 23.0717 10.5359V1.66291C23.0717 1.32022 22.7939 1.04242 22.4512 1.04242Z" fill="#2947C7"/>
<path d="M44.0256 1.04242C37.101 1.04242 32.3542 5.82638 32.3542 12.3973C32.3542 18.9683 37.101 23.7523 44.0256 23.7523C46.0422 23.7523 47.8602 23.3179 49.4859 22.6044L51.2233 24.621L54.3505 22.0894L52.7311 20.2279C54.6298 18.2485 55.7342 15.5184 55.7342 12.3973C55.7342 5.83258 50.9068 1.04242 44.0256 1.04242ZM49.3246 16.3126L47.1467 13.7438L44.0629 16.2754L46.2408 18.807C45.5706 19.0428 44.8198 19.1607 44.0256 19.1607C40.1476 19.1607 37.6594 16.1947 37.6594 12.3973C37.6594 8.59996 40.1538 5.63403 44.0256 5.63403C47.8975 5.63403 50.3918 8.56273 50.3918 12.3973C50.3918 13.8617 49.9947 15.2082 49.3246 16.3126Z" fill="#2947C7"/>
<path d="M78.5123 8.63718C78.5123 4.7219 75.7015 1.51398 70.8803 1.51398H59.8853V23.2745H65.1098V15.7976H68.4356L72.748 23.2745H78.7233L73.5422 15.2826C76.0365 14.7676 78.5247 12.5897 78.5247 8.63718H78.5123ZM70.2474 11.2494H65.1036V6.06836H70.2474C72.1089 6.06836 73.2133 7.1356 73.2133 8.63718C73.2133 10.1388 72.1461 11.2494 70.2474 11.2494Z" fill="#2947C7"/>
</g>
</g>
<path d="M114.708 21.481V3.873L115.948 5.671L110.275 8.523L109.066 3.997L115.049 0.989999H119.885V21.481H114.708ZM109.5 23V18.35H124.256V23H109.5Z" fill="#2947C7"/>
<path d="M83.3212 23V1.3H88.2192L102.014 16.8L101.177 16.645C101.053 15.901 100.96 15.1983 100.898 14.537C100.836 13.855 100.774 13.1937 100.712 12.553C100.671 11.9123 100.63 11.282 100.588 10.662C100.568 10.042 100.557 9.40133 100.557 8.74C100.557 8.07867 100.557 7.38633 100.557 6.663V1.3H105.672V23H100.712L86.4212 7.004L87.8162 7.221C87.8989 7.82033 87.9712 8.38867 88.0332 8.926C88.0952 9.44267 88.1469 9.95933 88.1882 10.476C88.2502 10.9927 88.3019 11.5197 88.3432 12.057C88.3846 12.5737 88.4052 13.142 88.4052 13.762C88.4259 14.3613 88.4362 15.0227 88.4362 15.746V23H83.3212Z" fill="#2947C7"/>
</g>
<defs>
<clipPath id="clip0_107_555">
<rect width="126" height="25.44" fill="white"/>
</clipPath>
<clipPath id="clip1_107_555">
<rect width="126" height="25.44" fill="white"/>
</clipPath>
<clipPath id="clip2_107_555">
<rect width="125.959" height="25.44" fill="white" transform="translate(0.0205078)"/>
</clipPath>
</defs>
</svg>
