<svg id="a" xmlns="http://www.w3.org/2000/svg" viewBox="0 0 203 41"><rect x="1.33" y="1.68" width="16.3" height="16.3" rx="1" ry="1" fill="#1D59F9"/><rect x="20.85" y="21.21" width="8.15" height="8.15" rx="1" ry="1" fill="#1D59F9"/><rect x="29" y="29.36" width="8.15" height="8.15" rx="1" ry="1" fill="#1D59F9"/><rect x="1.33" y="21.21" width="16.3" height="16.3" rx="1" ry="1" fill="#1D59F9"/><rect x="20.85" y="1.68" width="16.3" height="16.3" rx="1" ry="1" fill="#1D59F9"/><path d="M70.92,1.68c-11.16,0-18.81,7.71-18.81,18.3s7.65,18.3,18.81,18.3c3.25,0,6.18-.7,8.8-1.85l2.8,3.25,5.04-4.08-2.61-3c3.06-3.19,4.84-7.59,4.84-12.62,0-10.58-7.78-18.3-18.87-18.3Zm8.54,24.61l-3.51-4.14-4.97,4.08,3.51,4.08c-1.08,.38-2.29,.57-3.57,.57-6.25,0-10.26-4.78-10.26-10.9s4.02-10.9,10.26-10.9,10.26,4.72,10.26,10.9c0,2.36-.64,4.53-1.72,6.31Z" fill="#1D59F9"/><path d="M126.5,13.92c0-6.31-4.53-11.48-12.3-11.48h-17.72V37.51h8.42v-12.05h5.36l6.95,12.05h9.63l-8.35-12.88c4.02-.83,8.03-4.34,8.03-10.71Zm-13.32,4.21h-8.29V9.78h8.29c3,0,4.78,1.72,4.78,4.14s-1.72,4.21-4.78,4.21Z" fill="#1D59F9"/><polygon points="133.7 37.51 142.12 37.51 142.12 23.35 159.78 23.35 159.78 16.02 142.12 16.02 142.12 9.78 160.16 9.78 160.16 2.44 133.7 2.44 133.7 37.51" fill="#1D59F9"/><polygon points="191.5 2.44 182.77 15.96 173.84 2.44 164.34 2.44 178.56 23.1 178.56 37.51 186.91 37.51 186.91 23.1 201 2.44 191.5 2.44" fill="#1D59F9"/></svg>